Coordinates
version=1
nRows=8
nColumns=63
inDegrees=yes

Units are S.I. units (second, meters, Newtons, ...)
If the header above contains a line with 'inDegrees', this indicates whether rotational values are in degrees (yes) or radians (no).

endheader
time	pelvis_tilt	pelvis_list	pelvis_rotation	pelvis_tx	pelvis_ty	pelvis_tz	hip_flexion_r	hip_adduction_r	hip_rotation_r	knee_angle_r	knee_angle_r_beta	ankle_angle_r	subtalar_angle_r	mtp_angle_r	hip_flexion_l	hip_adduction_l	hip_rotation_l	knee_angle_l	knee_angle_l_beta	ankle_angle_l	subtalar_angle_l	mtp_angle_l	L5_S1_Flex_Ext	L5_S1_Lat_Bending	L5_S1_axial_rotation	L4_L5_Flex_Ext	L4_L5_Lat_Bending	L4_L5_axial_rotation	L3_L4_Flex_Ext	L3_L4_Lat_Bending	L3_L4_axial_rotation	L2_L3_Flex_Ext	L2_L3_Lat_Bending	L2_L3_axial_rotation	L1_L2_Flex_Ext	L1_L2_Lat_Bending	L1_L2_axial_rotation	L1_T12_Flex_Ext	L1_T12_Lat_Bending	L1_T12_axial_rotation	Abs_r3	Abs_r2	Abs_r1	Abs_t1	Abs_t2	neck_flexion	neck_bending	neck_rotation	arm_flex_r	arm_add_r	arm_rot_r	elbow_flex_r	pro_sup_r	wrist_flex_r	wrist_dev_r	arm_flex_l	arm_add_l	arm_rot_l	elbow_flex_l	pro_sup_l	wrist_flex_l	wrist_dev_l
0.000000	-1.156199	-2.380263	94.867795	0.200937	0.648062	0.696396	2.230136	-0.486390	-14.457494	4.096257	0.071493	15.851782	8.510335	0.000000	4.255709	2.454715	2.189366	4.147174	0.072382	9.543374	-10.096207	0.000000	0.096171	-0.194355	-0.725199	0.178599	-0.258492	-0.770524	0.157999	-0.472554	-0.770524	0.109914	-0.472554	-0.634549	0.089304	-0.396328	-0.589224	0.054952	-0.301056	-0.543899	0.686938	-2.198580	-4.033338	0.000000	0.000000	21.810662	5.501212	2.464469	4.394885	-11.991969	46.350327	25.116394	58.983094	-6.787171	-3.339110	6.113926	-13.427978	59.874841	21.868153	83.540225	-10.737138	4.483281
0.019608	-0.490989	-2.043229	95.061660	0.199532	0.648965	0.695154	2.017824	0.092995	-14.883398	4.559071	0.079571	15.908255	9.275461	0.000000	3.688381	1.818629	2.692243	3.755355	0.065543	9.924327	-10.275679	0.000000	0.069485	-0.094330	-0.833881	0.129041	-0.125458	-0.885998	0.114158	-0.229353	-0.885998	0.079415	-0.229353	-0.729646	0.064524	-0.192357	-0.677528	0.039704	-0.146116	-0.625411	0.496328	-1.067074	-4.637795	0.000000	0.000000	21.834385	4.763305	2.911719	4.094555	-12.386744	45.715942	25.964795	59.124308	-7.577639	-3.081211	7.351923	-12.883195	66.004866	20.629776	85.235694	-11.987530	4.877821
0.039216	0.018235	-1.815077	95.194017	0.198585	0.649622	0.694381	1.917476	0.526896	-15.310676	4.970787	0.086757	15.987641	9.957584	0.000000	3.309345	1.330943	3.101239	3.474991	0.060650	10.212066	-10.475004	0.000000	0.049441	-0.023567	-0.921872	0.091817	-0.031344	-0.979489	0.081227	-0.057300	-0.979489	0.056506	-0.057300	-0.806638	0.045911	-0.048057	-0.749021	0.028251	-0.036505	-0.691404	0.353153	-0.266590	-5.127176	0.000000	0.000000	21.961048	4.073677	3.047907	4.020048	-12.603159	45.316212	26.675249	59.851325	-8.333377	-2.792954	8.209779	-12.465274	69.995014	19.842613	86.422304	-12.894708	5.094203
0.058824	0.385507	-1.685505	95.268793	0.198050	0.650055	0.694035	1.917830	0.829284	-15.730036	5.332907	0.093077	16.085776	10.558648	0.000000	3.101348	0.977550	3.413187	3.296326	0.057532	10.418853	-10.677975	0.000000	0.035479	0.020790	-0.990314	0.065889	0.027651	-1.052208	0.058289	0.050550	-1.052208	0.040549	0.050550	-0.866524	0.032946	0.042396	-0.804630	0.020273	0.032204	-0.742735	0.253425	0.235184	-5.507828	0.000000	0.000000	22.177595	3.432856	2.908416	4.147628	-12.659466	45.120954	27.262945	61.069838	-9.045741	-2.477836	8.731829	-12.161359	72.083628	19.462155	87.157789	-13.496580	5.150862
0.078431	0.624862	-1.644210	95.289918	0.197883	0.650290	0.694077	2.007620	1.014131	-16.132189	5.646933	0.098558	16.198491	11.080596	0.000000	3.047136	0.744344	3.624918	3.209605	0.056018	10.556947	-10.868383	0.000000	0.027042	0.041597	-1.040347	0.050220	0.055325	-1.105368	0.044427	0.101140	-1.105368	0.030906	0.101140	-0.910303	0.025111	0.084826	-0.845282	0.015452	0.064434	-0.780260	0.193159	0.470559	-5.786097	0.000000	0.000000	22.470968	2.841370	2.528625	4.453556	-12.573919	45.099983	27.743071	62.685537	-9.706086	-2.139357	8.962411	-11.958594	72.509047	19.443892	87.499886	-13.831055	5.066233
0.098039	0.750333	-1.680890	95.261319	0.198039	0.650351	0.694467	2.175585	1.095409	-16.507844	5.914367	0.103225	16.321621	11.525372	0.000000	3.129456	0.617216	3.733265	3.205071	0.055939	10.638610	-11.030023	0.000000	0.023571	0.041711	-1.073113	0.043773	0.055476	-1.140182	0.038725	0.101416	-1.140182	0.026939	0.101416	-0.938973	0.021888	0.085057	-0.871904	0.013468	0.064610	-0.804834	0.168364	0.471844	-5.968330	0.000000	0.000000	22.828109	2.299747	1.943916	4.914093	-12.364772	45.223116	28.130817	64.604115	-10.305768	-1.781017	8.945861	-11.844121	71.509612	19.743317	87.506329	-13.936040	4.858752
0.117647	0.775956	-1.785242	95.186924	0.198475	0.650260	0.695164	2.410459	1.087089	-16.847712	6.136712	0.107106	16.451000	11.894919	0.000000	3.331054	0.582059	3.735059	3.272969	0.057124	10.676104	-11.146687	0.000000	0.024508	0.023988	-1.089752	0.045513	0.031903	-1.157862	0.040264	0.058323	-1.157862	0.028010	0.058323	-0.953533	0.022758	0.048915	-0.885424	0.014004	0.037157	-0.817314	0.175056	0.271351	-6.060874	0.000000	0.000000	23.235961	1.808515	1.189671	5.505503	-12.050277	45.460169	28.441372	66.731263	-10.836144	-1.406315	8.726516	-11.805085	69.323664	20.315919	87.234852	-13.849443	4.546853
0.137255	0.715764	-1.946963	95.070661	0.199146	0.650043	0.696128	2.700980	1.003142	-17.142501	6.315470	0.110226	16.582460	12.191180	0.000000	3.634678	0.624765	3.627133	3.403544	0.059403	10.681690	-11.202169	0.000000	0.029294	-0.008717	-1.091406	0.054402	-0.011594	-1.159619	0.048127	-0.021195	-1.159619	0.033480	-0.021195	-0.954981	0.027202	-0.017776	-0.886768	0.016739	-0.013503	-0.818555	0.209245	-0.098609	-6.070075	0.000000	0.000000	23.681466	1.368201	0.301269	6.204047	-11.648688	45.780956	28.689924	68.972672	-11.288571	-1.018749	8.348713	-11.828629	66.189543	21.117189	86.743191	-13.609175	4.148973
